<svg width="44" height="62" viewBox="0 0 44 62" fill="none" xmlns="http://www.w3.org/2000/svg">
<mask id="path-1-inside-1_4204_17024" fill="white">
<path fill-rule="evenodd" clip-rule="evenodd" d="M0 5.99999C0 2.68629 2.68629 0 6 0H38C41.3137 0 44 2.68629 44 6V40.5904C44 41.5082 43.7939 42.3778 43.4256 43.1556C43.2052 43.095 42.9726 43.0625 42.7321 43.0625C41.3314 43.0625 40.1959 44.1642 40.1959 45.5232C40.1959 45.7374 40.2241 45.9452 40.2771 46.1432C39.5749 46.4315 38.806 46.5904 38 46.5904H6C5.1941 46.5904 4.4253 46.4315 3.72324 46.1434C3.77625 45.9453 3.80447 45.7374 3.80447 45.5232C3.80447 44.1642 2.66895 43.0625 1.26822 43.0625C1.02768 43.0625 0.794965 43.095 0.574477 43.1557C0.206074 42.3779 0 41.5082 0 40.5904V5.99999Z"/>
</mask>
<path fill-rule="evenodd" clip-rule="evenodd" d="M0 5.99999C0 2.68629 2.68629 0 6 0H38C41.3137 0 44 2.68629 44 6V40.5904C44 41.5082 43.7939 42.3778 43.4256 43.1556C43.2052 43.095 42.9726 43.0625 42.7321 43.0625C41.3314 43.0625 40.1959 44.1642 40.1959 45.5232C40.1959 45.7374 40.2241 45.9452 40.2771 46.1432C39.5749 46.4315 38.806 46.5904 38 46.5904H6C5.1941 46.5904 4.4253 46.4315 3.72324 46.1434C3.77625 45.9453 3.80447 45.7374 3.80447 45.5232C3.80447 44.1642 2.66895 43.0625 1.26822 43.0625C1.02768 43.0625 0.794965 43.095 0.574477 43.1557C0.206074 42.3779 0 41.5082 0 40.5904V5.99999Z" fill="white"/>
<path d="M43.4256 43.1556L43.2664 43.7341L43.7522 43.8678L43.9678 43.4124L43.4256 43.1556ZM40.2771 46.1432L40.5049 46.6983L40.9931 46.4979L40.8567 45.9882L40.2771 46.1432ZM3.72324 46.1434L3.14363 45.9883L3.00721 46.4981L3.49542 46.6984L3.72324 46.1434ZM0.574477 43.1557L0.0322274 43.4125L0.247921 43.8679L0.73373 43.7342L0.574477 43.1557ZM6 -0.6C2.35492 -0.6 -0.6 2.35491 -0.6 5.99999H0.6C0.6 3.01766 3.01766 0.6 6 0.6V-0.6ZM38 -0.6H6V0.6H38V-0.6ZM44.6 6C44.6 2.35492 41.6451 -0.6 38 -0.6V0.6C40.9823 0.6 43.4 3.01766 43.4 6H44.6ZM44.6 40.5904V6H43.4V40.5904H44.6ZM43.9678 43.4124C44.3734 42.5561 44.6 41.5989 44.6 40.5904H43.4C43.4 41.4175 43.2145 42.1996 42.8833 42.8988L43.9678 43.4124ZM42.7321 43.6625C42.9184 43.6625 43.0975 43.6876 43.2664 43.7341L43.5847 42.5771C43.3129 42.5023 43.0268 42.4625 42.7321 42.4625V43.6625ZM40.7959 45.5232C40.7959 44.5125 41.6456 43.6625 42.7321 43.6625V42.4625C41.0173 42.4625 39.5959 43.8159 39.5959 45.5232H40.7959ZM40.8567 45.9882C40.8171 45.8401 40.7959 45.6845 40.7959 45.5232H39.5959C39.5959 45.7903 39.6311 46.0502 39.6975 46.2983L40.8567 45.9882ZM38 47.1904C38.8855 47.1904 39.7317 47.0157 40.5049 46.6983L40.0492 45.5882C39.4181 45.8473 38.7265 45.9904 38 45.9904V47.1904ZM6 47.1904H38V45.9904H6V47.1904ZM3.49542 46.6984C4.26852 47.0158 5.11461 47.1904 6 47.1904V45.9904C5.27358 45.9904 4.58209 45.8473 3.95106 45.5883L3.49542 46.6984ZM3.20447 45.5232C3.20447 45.6845 3.18325 45.8402 3.14363 45.9883L4.30284 46.2985C4.36926 46.0503 4.40447 45.7903 4.40447 45.5232H3.20447ZM1.26822 43.6625C2.35481 43.6625 3.20447 44.5125 3.20447 45.5232H4.40447C4.40447 43.8159 2.98309 42.4625 1.26822 42.4625V43.6625ZM0.73373 43.7342C0.902731 43.6876 1.0819 43.6625 1.26822 43.6625V42.4625C0.973466 42.4625 0.687198 42.5023 0.415224 42.5772L0.73373 43.7342ZM-0.6 40.5904C-0.6 41.5989 -0.3734 42.5561 0.0322274 43.4125L1.11673 42.8988C0.785548 42.1996 0.6 41.4175 0.6 40.5904H-0.6ZM-0.6 5.99999V40.5904H0.6V5.99999H-0.6Z" fill="black" mask="url(#path-1-inside-1_4204_17024)"/>
<path d="M37.2771 0.512695C37.5557 0.512695 37.695 0.512695 37.8127 0.517321C40.9414 0.640249 43.4496 3.14841 43.5725 6.27714C43.5771 6.39487 43.5771 6.53414 43.5771 6.81269L43.5771 9.12519L0.508365 9.12519L0.508365 6.81269C0.508365 6.53414 0.508365 6.39487 0.512993 6.27713C0.635918 3.14841 3.14408 0.640247 6.27281 0.51732C6.39054 0.512694 6.52982 0.512694 6.80836 0.512694L37.2771 0.512695Z" fill="#B5FD1D"/>
<mask id="path-4-inside-2_4204_17024" fill="white">
<path fill-rule="evenodd" clip-rule="evenodd" d="M40.5428 46.5903H3.46792C3.39309 47.6042 2.57052 48.4028 1.5668 48.4028C1.14563 48.4028 0.756355 48.2622 0.440836 48.0241C0.161214 48.48 0 49.0163 0 49.5903V58.5924C0 60.2493 1.34315 61.5924 3 61.5924H41C42.6569 61.5924 44 60.2493 44 58.5924V49.5903C44 48.9874 43.8221 48.4259 43.516 47.9557C43.2086 48.1742 42.8358 48.3022 42.434 48.3022C41.4637 48.3022 40.6627 47.5559 40.5428 46.5903Z"/>
</mask>
<path fill-rule="evenodd" clip-rule="evenodd" d="M40.5428 46.5903H3.46792C3.39309 47.6042 2.57052 48.4028 1.5668 48.4028C1.14563 48.4028 0.756355 48.2622 0.440836 48.0241C0.161214 48.48 0 49.0163 0 49.5903V58.5924C0 60.2493 1.34315 61.5924 3 61.5924H41C42.6569 61.5924 44 60.2493 44 58.5924V49.5903C44 48.9874 43.8221 48.4259 43.516 47.9557C43.2086 48.1742 42.8358 48.3022 42.434 48.3022C41.4637 48.3022 40.6627 47.5559 40.5428 46.5903Z" fill="#6101FF"/>
<path d="M40.5428 46.5903L41.1382 46.5164L41.0729 45.9903H40.5428V46.5903ZM3.46792 46.5903V45.9903H2.91057L2.86955 46.5462L3.46792 46.5903ZM0.440836 48.0241L0.802283 47.5451L0.274853 47.1471L-0.0706265 47.7104L0.440836 48.0241ZM43.516 47.9557L44.0188 47.6283L43.6777 47.1045L43.1683 47.4667L43.516 47.9557ZM40.5428 45.9903H3.46792V47.1903H40.5428V45.9903ZM2.86955 46.5462C2.81657 47.2639 2.23925 47.8028 1.5668 47.8028V49.0028C2.90179 49.0028 3.96961 47.9444 4.06629 46.6345L2.86955 46.5462ZM1.5668 47.8028C1.28188 47.8028 1.01842 47.7083 0.802283 47.5451L0.0793882 48.503C0.494293 48.8161 1.00938 49.0028 1.5668 49.0028V47.8028ZM-0.0706265 47.7104C-0.406486 48.2579 -0.6 48.9025 -0.6 49.5903H0.6C0.6 49.1302 0.728915 48.702 0.952298 48.3377L-0.0706265 47.7104ZM-0.6 49.5903V58.5924H0.6V49.5903H-0.6ZM-0.6 58.5924C-0.6 60.5807 1.01177 62.1924 3 62.1924V60.9924C1.67452 60.9924 0.6 59.9179 0.6 58.5924H-0.6ZM3 62.1924H41V60.9924H3V62.1924ZM41 62.1924C42.9882 62.1924 44.6 60.5807 44.6 58.5924H43.4C43.4 59.9179 42.3255 60.9924 41 60.9924V62.1924ZM44.6 58.5924V49.5903H43.4V58.5924H44.6ZM44.6 49.5903C44.6 48.8677 44.3864 48.193 44.0188 47.6283L43.0131 48.2831C43.2578 48.6589 43.4 49.1071 43.4 49.5903H44.6ZM43.1683 47.4667C42.9581 47.6161 42.706 47.7022 42.434 47.7022V48.9022C42.9656 48.9022 43.459 48.7324 43.8636 48.4447L43.1683 47.4667ZM42.434 47.7022C41.7838 47.7022 41.223 47.199 41.1382 46.5164L39.9474 46.6643C40.1024 47.9128 41.1436 48.9022 42.434 48.9022V47.7022Z" fill="black" mask="url(#path-4-inside-2_4204_17024)"/>
<path d="M5.68069 48.5596H5.04785V57.8436H5.68069V48.5596Z" fill="white"/>
<path d="M6.22312 48.5596H5.9519V57.8436H6.22312V48.5596Z" fill="white"/>
<path d="M6.947 48.5596H6.67578V57.8436H6.947V48.5596Z" fill="white"/>
<path d="M8.30242 48.5596H7.9408V57.8436H8.30242V48.5596Z" fill="white"/>
<path d="M9.49763 48.5596H8.60767V57.8305H9.49763V48.5596Z" fill="white"/>
<path d="M10.3874 48.5596H9.79407V57.8305H10.3874V48.5596Z" fill="white"/>
<path d="M11.4263 48.5596H11.1296V57.8305H11.4263V48.5596Z" fill="white"/>
<path d="M12.0196 48.5596H11.7229V57.8305H12.0196V48.5596Z" fill="white"/>
<path d="M13.3543 48.5596H12.9093V57.8305H13.3543V48.5596Z" fill="white"/>
<path d="M14.5197 48.5596H14.2411V57.8305H14.5197V48.5596Z" fill="white"/>
<path d="M15.3556 48.5596H14.7985V57.8305H15.3556V48.5596Z" fill="white"/>
<path d="M17.0267 48.5596H16.191V57.8305H17.0267V48.5596Z" fill="white"/>
<path d="M17.5841 48.5596H17.3055V57.8305H17.5841V48.5596Z" fill="white"/>
<path d="M18.9761 48.5596H18.4189V57.8305H18.9761V48.5596Z" fill="white"/>
<path d="M19.5327 48.5596H19.2542V57.8305H19.5327V48.5596Z" fill="white"/>
<path d="M20.9271 48.5596H20.37V57.8305H20.9271V48.5596Z" fill="white"/>
<path d="M22.0399 48.5596H21.7614V57.8305H22.0399V48.5596Z" fill="white"/>
<path d="M23.1555 48.5596H22.3198V57.8305H23.1555V48.5596Z" fill="white"/>
<path d="M23.7118 48.5596H23.4332V57.8305H23.7118V48.5596Z" fill="white"/>
<path d="M25.1049 48.5596H24.5477V57.8305H25.1049V48.5596Z" fill="white"/>
<path d="M26.2188 48.5596H25.3831V57.8305H26.2188V48.5596Z" fill="white"/>
<path d="M26.7762 48.5596H26.4977V57.8305H26.7762V48.5596Z" fill="white"/>
<path d="M27.3335 48.5596H27.0549V57.8305H27.3335V48.5596Z" fill="white"/>
<path d="M28.7253 48.5596H28.1682V57.8305H28.7253V48.5596Z" fill="white"/>
<path d="M29.8406 48.5596H29.562V57.8305H29.8406V48.5596Z" fill="white"/>
<path d="M30.9539 48.5596H30.6753V57.8305H30.9539V48.5596Z" fill="white"/>
<path d="M31.7898 48.5596H31.2327V57.8305H31.7898V48.5596Z" fill="white"/>
<path d="M32.9053 48.5596H32.6267V57.8305H32.9053V48.5596Z" fill="white"/>
<path d="M34.2976 48.5596H34.019V57.8305H34.2976V48.5596Z" fill="white"/>
<path d="M35.1335 48.5596H34.5764V57.8305H35.1335V48.5596Z" fill="white"/>
<path d="M36.2481 48.5596H35.6909V57.8305H36.2481V48.5596Z" fill="white"/>
<path d="M37.9192 48.5596H37.0835V57.8305H37.9192V48.5596Z" fill="white"/>
<path d="M38.4767 48.5596H38.1981V57.8305H38.4767V48.5596Z" fill="white"/>
<path d="M39.3113 48.5596H38.7542V57.8305H39.3113V48.5596Z" fill="white"/>
<path d="M6.23633 58.9087L6.00488 60H5.84595L5.63794 59.1409L5.4314 60H5.27319L5.03296 58.9087H5.1897L5.36108 59.7957L5.56982 58.9087H5.71704L5.93164 59.7957L6.09863 58.9087H6.23633ZM7.13647 60H6.9856L6.90283 59.7209H6.49927L6.41943 60H6.27661L6.61133 58.9087H6.80981L7.13647 60ZM6.87207 59.6155L6.77979 59.2881L6.70361 59.02C6.67529 59.1211 6.65039 59.208 6.62891 59.2808L6.53076 59.6155H6.87207ZM7.82861 59.0215H7.5437V60H7.39502V59.0215H7.11597V58.9087H7.82861V59.0215ZM8.57129 60H7.95312V58.9087H8.5647L8.57935 59.0215H8.10181V59.3723H8.50977V59.491H8.10181V59.8879H8.58594L8.57129 60ZM9.5271 59.209C9.5271 59.3022 9.50952 59.3716 9.47437 59.417C9.43921 59.4619 9.39014 59.4895 9.32715 59.4998C9.4209 59.5188 9.47656 59.5784 9.49414 59.6785L9.55054 60H9.3916C9.3877 59.9775 9.38306 59.9451 9.37769 59.9026C9.3728 59.8596 9.36816 59.8235 9.36377 59.7942C9.35938 59.7644 9.35352 59.7329 9.34619 59.6997C9.33887 59.6665 9.3291 59.6387 9.31689 59.6162C9.30518 59.5938 9.29102 59.5771 9.27441 59.5664C9.24805 59.5552 9.20483 59.5496 9.14478 59.5496H8.91846V60H8.77051V58.9087H9.10376C9.13892 58.9087 9.1687 58.9092 9.19312 58.9102C9.21802 58.9106 9.24414 58.9121 9.27148 58.9146C9.29883 58.917 9.32178 58.9204 9.34033 58.9248C9.35889 58.9292 9.37769 58.9351 9.39673 58.9424C9.41626 58.9497 9.43213 58.9587 9.44434 58.9695C9.45703 58.9802 9.46899 58.9932 9.48022 59.0083C9.49146 59.0229 9.50024 59.04 9.50659 59.0596C9.51294 59.0786 9.51782 59.1006 9.52124 59.1255C9.52515 59.1504 9.5271 59.1782 9.5271 59.209ZM9.38062 59.2668V59.165C9.38062 59.1465 9.38013 59.1321 9.37915 59.1218C9.37866 59.1111 9.37695 59.0999 9.37402 59.0881C9.37109 59.0759 9.36646 59.0669 9.36011 59.061C9.35425 59.0547 9.34619 59.0486 9.33594 59.0427C9.32617 59.0364 9.31323 59.032 9.29712 59.0295C9.28149 59.0271 9.26294 59.0251 9.24146 59.0237C9.22046 59.0217 9.19507 59.0208 9.16528 59.0208H8.91846V59.4331H9.17407C9.21167 59.4331 9.24268 59.4312 9.26709 59.4272C9.2915 59.4233 9.31128 59.418 9.32642 59.4111C9.34204 59.4038 9.35376 59.3931 9.36157 59.3789C9.36938 59.3643 9.37451 59.3489 9.37695 59.3328C9.37939 59.3162 9.38062 59.2942 9.38062 59.2668ZM10.5107 59.6858C10.5103 59.7166 10.509 59.7437 10.5071 59.7671C10.5056 59.79 10.5029 59.8118 10.499 59.8323C10.4951 59.8528 10.491 59.8701 10.4866 59.8843C10.4822 59.8984 10.4751 59.9119 10.4653 59.9246C10.4561 59.9368 10.447 59.9468 10.4382 59.9546C10.4294 59.9619 10.4167 59.9688 10.4001 59.9751C10.384 59.981 10.3684 59.9854 10.3533 59.9883C10.3381 59.9912 10.3179 59.9937 10.2925 59.9956C10.2676 59.9976 10.2434 59.9988 10.22 59.9993C10.197 59.9998 10.168 60 10.1328 60H9.7417V58.9087H10.1562C10.2114 58.9087 10.2571 58.9116 10.2932 58.9175C10.3298 58.9229 10.3621 58.9329 10.3899 58.9475C10.4182 58.9622 10.4387 58.9829 10.4514 59.0098C10.4641 59.0366 10.4707 59.0708 10.4712 59.1123L10.4719 59.1914C10.4719 59.2246 10.4707 59.2517 10.4683 59.2727C10.4658 59.2937 10.4614 59.3127 10.4551 59.3298C10.4492 59.3469 10.4402 59.3604 10.428 59.3701C10.4158 59.3799 10.4009 59.3882 10.3833 59.395C10.3662 59.4014 10.344 59.407 10.3167 59.4119C10.3499 59.4153 10.3784 59.4226 10.4023 59.4338C10.4263 59.4451 10.4451 59.4585 10.4587 59.4741C10.4729 59.4897 10.4839 59.5095 10.4917 59.5334C10.4995 59.5574 10.5046 59.5808 10.5071 59.6038C10.5095 59.6267 10.5107 59.6541 10.5107 59.6858ZM10.3269 59.1599C10.3269 59.1589 10.3269 59.1575 10.3269 59.1555C10.3269 59.135 10.3269 59.1206 10.3269 59.1123C10.3269 59.1035 10.3254 59.093 10.3225 59.0808C10.3201 59.0681 10.3174 59.0598 10.3145 59.0559C10.312 59.052 10.3059 59.0469 10.2961 59.0405C10.2869 59.0337 10.2776 59.0298 10.2683 59.0288C10.259 59.0273 10.2444 59.0256 10.2244 59.0237C10.2048 59.0212 10.1853 59.02 10.1658 59.02C10.1462 59.02 10.1196 59.02 10.0859 59.02H9.88892V59.3701H10.0361C10.1001 59.3701 10.1519 59.3684 10.1914 59.365C10.231 59.3611 10.2603 59.3547 10.2793 59.3459C10.2988 59.3367 10.3115 59.3269 10.3174 59.3167C10.3237 59.3064 10.3269 59.2927 10.3269 59.2756V59.1599ZM10.3657 59.6506C10.3647 59.5925 10.3625 59.5559 10.3591 59.5408C10.3523 59.5139 10.3354 59.4956 10.3086 59.4858C10.2754 59.4731 10.2012 59.4666 10.0859 59.4661C10.0781 59.4661 10.0696 59.4661 10.0603 59.4661H9.88892V59.8894H10.1687C10.2253 59.8894 10.2681 59.8848 10.2969 59.8755C10.3257 59.8657 10.3447 59.8513 10.354 59.8323C10.3633 59.8132 10.3677 59.7852 10.3672 59.748L10.3657 59.6506ZM11.1069 60.0176C11.0645 60.0176 11.0266 60.0166 10.9934 60.0146C10.9607 60.0127 10.9304 60.0078 10.9026 60C10.8748 59.9927 10.8508 59.9858 10.8308 59.9795C10.8113 59.9731 10.7935 59.9612 10.7773 59.9436C10.7617 59.9255 10.7488 59.9102 10.7385 59.8975C10.7283 59.8843 10.7195 59.8628 10.7122 59.833C10.7048 59.8027 10.6995 59.7771 10.696 59.7561C10.6926 59.7346 10.6897 59.7017 10.6873 59.6572C10.6853 59.6128 10.6841 59.5747 10.6836 59.543C10.6836 59.5112 10.6836 59.4653 10.6836 59.4053C10.6836 59.333 10.6855 59.2729 10.6895 59.2251C10.6934 59.1772 10.7009 59.1328 10.7122 59.0918C10.7239 59.0508 10.739 59.0186 10.7576 58.9951C10.7766 58.9717 10.8022 58.9517 10.8345 58.9351C10.8672 58.918 10.905 58.9065 10.948 58.9006C10.9915 58.8943 11.0444 58.8911 11.1069 58.8911C11.166 58.8911 11.2166 58.894 11.2585 58.8999C11.3005 58.9058 11.3376 58.9163 11.3699 58.9314C11.4026 58.946 11.4287 58.9646 11.4482 58.9871C11.4683 59.009 11.4846 59.0381 11.4973 59.0742C11.51 59.1104 11.5186 59.1509 11.5229 59.1958C11.5278 59.2402 11.5303 59.2944 11.5303 59.3584C11.5303 59.5391 11.5276 59.658 11.5222 59.7151C11.5129 59.8127 11.4905 59.8826 11.4548 59.9246C11.4172 59.9695 11.3533 59.9978 11.2629 60.0095C11.22 60.0149 11.168 60.0176 11.1069 60.0176ZM11.2117 59.0068C11.1838 59.0049 11.1489 59.0039 11.1069 59.0039C11.0649 59.0039 11.03 59.0049 11.0022 59.0068C10.9744 59.0088 10.95 59.0129 10.929 59.0193C10.9084 59.0256 10.8926 59.0327 10.8813 59.0405C10.8701 59.0483 10.8608 59.0605 10.8535 59.0771C10.8467 59.0933 10.842 59.1099 10.8396 59.127C10.8376 59.144 10.8362 59.1672 10.8352 59.1965C10.8337 59.2869 10.833 59.3777 10.833 59.469C10.833 59.6067 10.8367 59.7009 10.844 59.7517C10.8557 59.8279 10.8779 59.8718 10.9106 59.8835C10.9351 59.8977 11.0005 59.9048 11.1069 59.9048C11.2134 59.9048 11.2788 59.8977 11.3032 59.8835C11.3125 59.8801 11.3208 59.8745 11.3281 59.8667C11.3359 59.8589 11.3423 59.8484 11.3472 59.8352C11.3525 59.822 11.3572 59.8088 11.3611 59.7957C11.365 59.782 11.3682 59.7646 11.3706 59.7437C11.373 59.7227 11.375 59.7039 11.3765 59.6873C11.3779 59.6702 11.3789 59.6487 11.3794 59.6228C11.3799 59.5964 11.3801 59.5747 11.3801 59.5576C11.3806 59.5405 11.3809 59.5178 11.3809 59.4895C11.3809 59.3909 11.3801 59.2932 11.3787 59.1965C11.3777 59.1672 11.376 59.144 11.3735 59.127C11.3716 59.1099 11.3669 59.0933 11.3596 59.0771C11.3528 59.0605 11.3438 59.0483 11.3325 59.0405C11.3213 59.0327 11.3052 59.0256 11.2842 59.0193C11.2637 59.0129 11.2395 59.0088 11.2117 59.0068ZM11.7097 60L11.7639 58.9021H11.925L12.24 59.7612L12.5491 58.9021H12.7102L12.7681 60H12.623L12.585 59.1204L12.2817 60H12.1968L11.8789 59.127L11.8467 60H11.7097ZM13.7422 59.6858C13.7417 59.7166 13.7405 59.7437 13.7385 59.7671C13.7371 59.79 13.7344 59.8118 13.7305 59.8323C13.7266 59.8528 13.7224 59.8701 13.718 59.8843C13.7136 59.8984 13.7065 59.9119 13.6968 59.9246C13.6875 59.9368 13.6785 59.9468 13.6697 59.9546C13.6609 59.9619 13.6482 59.9688 13.6316 59.9751C13.6155 59.981 13.5999 59.9854 13.5847 59.9883C13.5696 59.9912 13.5493 59.9937 13.5239 59.9956C13.499 59.9976 13.4749 59.9988 13.4514 59.9993C13.4285 59.9998 13.3994 60 13.3643 60H12.9731V58.9087H13.3877C13.4429 58.9087 13.4885 58.9116 13.5247 58.9175C13.5613 58.9229 13.5935 58.9329 13.6213 58.9475C13.6497 58.9622 13.6702 58.9829 13.6829 59.0098C13.6956 59.0366 13.7021 59.0708 13.7026 59.1123L13.7034 59.1914C13.7034 59.2246 13.7021 59.2517 13.6997 59.2727C13.6973 59.2937 13.6929 59.3127 13.6865 59.3298C13.6807 59.3469 13.6716 59.3604 13.6594 59.3701C13.6472 59.3799 13.6323 59.3882 13.6147 59.395C13.5977 59.4014 13.5754 59.407 13.5481 59.4119C13.5813 59.4153 13.6099 59.4226 13.6338 59.4338C13.6577 59.4451 13.6765 59.4585 13.6902 59.4741C13.7043 59.4897 13.7153 59.5095 13.7231 59.5334C13.731 59.5574 13.7361 59.5808 13.7385 59.6038C13.741 59.6267 13.7422 59.6541 13.7422 59.6858ZM13.5583 59.1599C13.5583 59.1589 13.5583 59.1575 13.5583 59.1555C13.5583 59.135 13.5583 59.1206 13.5583 59.1123C13.5583 59.1035 13.5569 59.093 13.554 59.0808C13.5515 59.0681 13.5488 59.0598 13.5459 59.0559C13.5435 59.052 13.5374 59.0469 13.5276 59.0405C13.5183 59.0337 13.509 59.0298 13.4998 59.0288C13.4905 59.0273 13.4758 59.0256 13.4558 59.0237C13.4363 59.0212 13.4167 59.02 13.3972 59.02C13.3777 59.02 13.3511 59.02 13.3174 59.02H13.1204V59.3701H13.2676C13.3315 59.3701 13.3833 59.3684 13.4229 59.365C13.4624 59.3611 13.4917 59.3547 13.5107 59.3459C13.5303 59.3367 13.543 59.3269 13.5488 59.3167C13.5552 59.3064 13.5583 59.2927 13.5583 59.2756V59.1599ZM13.5972 59.6506C13.5962 59.5925 13.594 59.5559 13.5906 59.5408C13.5837 59.5139 13.5669 59.4956 13.54 59.4858C13.5068 59.4731 13.4326 59.4666 13.3174 59.4661C13.3096 59.4661 13.301 59.4661 13.2917 59.4661H13.1204V59.8894H13.4001C13.4568 59.8894 13.4995 59.8848 13.5283 59.8755C13.5571 59.8657 13.5762 59.8513 13.5854 59.8323C13.5947 59.8132 13.5991 59.7852 13.5986 59.748L13.5972 59.6506ZM14.8357 59.0215H14.3853V59.3774H14.769V59.4961H14.3853V60H14.2366V58.9087H14.821L14.8357 59.0215ZM15.6157 60H14.9976V58.9087H15.6091L15.6238 59.0215H15.1462V59.3723H15.5542V59.491H15.1462V59.8879H15.6304L15.6157 60ZM16.5312 59.6799C16.5312 59.7117 16.5303 59.7405 16.5283 59.7664C16.5264 59.7917 16.5227 59.8152 16.5173 59.8367C16.5125 59.8577 16.5071 59.8762 16.5012 59.8923C16.4954 59.9084 16.4871 59.9229 16.4763 59.9355C16.4656 59.9478 16.4548 59.9583 16.4441 59.967C16.4338 59.9758 16.4202 59.9834 16.4031 59.9897C16.3865 59.9956 16.3704 60.0002 16.3547 60.0037C16.3391 60.0076 16.3196 60.0105 16.2961 60.0125C16.2727 60.0144 16.2502 60.0156 16.2288 60.0161C16.2078 60.0171 16.1819 60.0176 16.1511 60.0176C16.093 60.0176 16.0442 60.0159 16.0046 60.0125C15.9656 60.009 15.9321 60.0017 15.9043 59.9905C15.877 59.9792 15.8557 59.9678 15.8406 59.9561C15.8254 59.9438 15.8135 59.9248 15.8047 59.8989C15.7959 59.8726 15.79 59.8474 15.7871 59.8235C15.7847 59.7996 15.7825 59.7656 15.7805 59.7217L15.916 59.6997C15.9175 59.7104 15.9189 59.7256 15.9204 59.7451C15.9233 59.7754 15.926 59.7969 15.9285 59.8096C15.9314 59.8218 15.9368 59.8354 15.9446 59.8506C15.9524 59.8657 15.9646 59.8757 15.9812 59.8806C15.9978 59.885 16.0195 59.8889 16.0464 59.8923C16.0732 59.8958 16.1091 59.8975 16.1541 59.8975C16.1912 59.8975 16.2217 59.8965 16.2456 59.8945C16.2695 59.8926 16.2905 59.8887 16.3086 59.8828C16.3267 59.8765 16.3403 59.8694 16.3496 59.8616C16.3589 59.8538 16.3662 59.8418 16.3716 59.8257C16.3774 59.8091 16.3811 59.792 16.3826 59.7744C16.384 59.7568 16.3845 59.7334 16.384 59.7041C16.3835 59.6396 16.3799 59.5952 16.373 59.5708C16.3667 59.5459 16.3528 59.5312 16.3313 59.5269L15.9666 59.4631C15.9031 59.4524 15.8589 59.4282 15.834 59.3906C15.8091 59.353 15.7959 59.2922 15.7944 59.2083C15.7944 59.1633 15.7966 59.125 15.801 59.0933C15.8059 59.061 15.814 59.033 15.8252 59.009C15.8369 58.9846 15.8511 58.9651 15.8677 58.9504C15.8848 58.9358 15.907 58.9241 15.9343 58.9153C15.9622 58.906 15.9924 58.8999 16.0251 58.897C16.0583 58.8936 16.0989 58.8918 16.1467 58.8918C16.1858 58.8918 16.2192 58.8928 16.2471 58.8948C16.2754 58.8962 16.3027 58.8992 16.3291 58.9036C16.356 58.908 16.3782 58.9141 16.3958 58.9219C16.4133 58.9297 16.4294 58.9399 16.4441 58.9526C16.4592 58.9648 16.4709 58.98 16.4792 58.998C16.4875 59.0156 16.4939 59.0364 16.4983 59.0603C16.5027 59.0842 16.5049 59.1118 16.5049 59.1431L16.3745 59.1731C16.3696 59.1194 16.3665 59.0889 16.365 59.0815C16.3591 59.0566 16.3452 59.0398 16.3232 59.031C16.2988 59.0208 16.2478 59.0156 16.1702 59.0156C16.1277 59.0156 16.0925 59.0168 16.0647 59.0193C16.0374 59.0217 16.0149 59.0254 15.9973 59.0303C15.9797 59.0347 15.9666 59.0415 15.9578 59.0508C15.9495 59.0601 15.9438 59.0701 15.9409 59.0808C15.938 59.0911 15.9365 59.1047 15.9365 59.1218V59.2485C15.9365 59.2944 15.9565 59.3208 15.9966 59.3276L16.2588 59.3723C16.2832 59.3762 16.3027 59.3796 16.3174 59.3826C16.332 59.3855 16.3489 59.3894 16.3679 59.3943C16.387 59.3992 16.4019 59.4043 16.4126 59.4097C16.4233 59.415 16.4353 59.4219 16.4485 59.4302C16.4617 59.4385 16.4719 59.4478 16.4792 59.458C16.4866 59.4683 16.4939 59.4805 16.5012 59.4946C16.509 59.5088 16.5146 59.5249 16.5181 59.543C16.522 59.5605 16.5251 59.5808 16.5276 59.6038C16.53 59.6262 16.5312 59.6516 16.5312 59.6799ZM17.3267 59.0215H17.0417V60H16.8931V59.0215H16.614V58.9087H17.3267V59.0215ZM17.6042 60H17.4556V58.9087H17.6042V60ZM18.6113 58.9087L18.2524 60H18.0986L17.7493 58.9087H17.9067L18.1785 59.8103L18.4502 58.9087H18.6113ZM19.4543 60H19.3035L19.2207 59.7209H18.8171L18.7373 60H18.5945L18.9292 58.9087H19.1277L19.4543 60ZM19.1899 59.6155L19.0977 59.2881L19.0215 59.02C18.9932 59.1211 18.9683 59.208 18.9468 59.2808L18.8486 59.6155H19.1899ZM20.1648 60H19.6104V58.9087H19.759V59.8879H20.1794L20.1648 60ZM21.4136 60H21.2341L20.8408 59.4639L20.7837 59.532V60H20.6357V58.9087H20.7837V59.28C20.7837 59.2942 20.7834 59.3167 20.783 59.3474C20.783 59.3777 20.783 59.3994 20.783 59.4126C20.7903 59.4033 20.8184 59.3674 20.8672 59.3049L21.1887 58.9087H21.3652L20.9565 59.3928L21.4136 60ZM21.916 60.0176C21.8735 60.0176 21.8357 60.0166 21.8025 60.0146C21.7698 60.0127 21.7395 60.0078 21.7117 60C21.6838 59.9927 21.6599 59.9858 21.6399 59.9795C21.6204 59.9731 21.6025 59.9612 21.5864 59.9436C21.5708 59.9255 21.5579 59.9102 21.5476 59.8975C21.5374 59.8843 21.5286 59.8628 21.5212 59.833C21.5139 59.8027 21.5085 59.7771 21.5051 59.7561C21.5017 59.7346 21.4988 59.7017 21.4963 59.6572C21.4944 59.6128 21.4932 59.5747 21.4927 59.543C21.4927 59.5112 21.4927 59.4653 21.4927 59.4053C21.4927 59.333 21.4946 59.2729 21.4985 59.2251C21.5024 59.1772 21.51 59.1328 21.5212 59.0918C21.533 59.0508 21.5481 59.0186 21.5667 58.9951C21.5857 58.9717 21.6113 58.9517 21.6436 58.9351C21.6763 58.918 21.7141 58.9065 21.7571 58.9006C21.8005 58.8943 21.8535 58.8911 21.916 58.8911C21.9751 58.8911 22.0256 58.894 22.0676 58.8999C22.1096 58.9058 22.1467 58.9163 22.179 58.9314C22.2117 58.946 22.2378 58.9646 22.2573 58.9871C22.2773 59.009 22.2937 59.0381 22.3064 59.0742C22.3191 59.1104 22.3276 59.1509 22.332 59.1958C22.3369 59.2402 22.3394 59.2944 22.3394 59.3584C22.3394 59.5391 22.3367 59.658 22.3313 59.7151C22.322 59.8127 22.2996 59.8826 22.2639 59.9246C22.2263 59.9695 22.1624 59.9978 22.072 60.0095C22.0291 60.0149 21.9771 60.0176 21.916 60.0176ZM22.0208 59.0068C21.9929 59.0049 21.958 59.0039 21.916 59.0039C21.874 59.0039 21.8391 59.0049 21.8113 59.0068C21.7834 59.0088 21.759 59.0129 21.738 59.0193C21.7175 59.0256 21.7017 59.0327 21.6904 59.0405C21.6792 59.0483 21.6699 59.0605 21.6626 59.0771C21.6558 59.0933 21.6511 59.1099 21.6487 59.127C21.6467 59.144 21.6453 59.1672 21.6443 59.1965C21.6428 59.2869 21.6421 59.3777 21.6421 59.469C21.6421 59.6067 21.6458 59.7009 21.6531 59.7517C21.6648 59.8279 21.687 59.8718 21.7197 59.8835C21.7441 59.8977 21.8096 59.9048 21.916 59.9048C22.0225 59.9048 22.0879 59.8977 22.1123 59.8835C22.1216 59.8801 22.1299 59.8745 22.1372 59.8667C22.145 59.8589 22.1514 59.8484 22.1562 59.8352C22.1616 59.822 22.1663 59.8088 22.1702 59.7957C22.1741 59.782 22.1772 59.7646 22.1797 59.7437C22.1821 59.7227 22.1841 59.7039 22.1855 59.6873C22.187 59.6702 22.188 59.6487 22.1885 59.6228C22.189 59.5964 22.1892 59.5747 22.1892 59.5576C22.1897 59.5405 22.1899 59.5178 22.1899 59.4895C22.1899 59.3909 22.1892 59.2932 22.1877 59.1965C22.1868 59.1672 22.1851 59.144 22.1826 59.127C22.1807 59.1099 22.176 59.0933 22.1687 59.0771C22.1619 59.0605 22.1528 59.0483 22.1416 59.0405C22.1304 59.0327 22.1143 59.0256 22.0933 59.0193C22.0728 59.0129 22.0486 59.0088 22.0208 59.0068ZM23.3142 59.209C23.3142 59.3022 23.2966 59.3716 23.2615 59.417C23.2263 59.4619 23.1772 59.4895 23.1143 59.4998C23.208 59.5188 23.2637 59.5784 23.2812 59.6785L23.3376 60H23.1787C23.1748 59.9775 23.1702 59.9451 23.1648 59.9026C23.1599 59.8596 23.1553 59.8235 23.1509 59.7942C23.1465 59.7644 23.1406 59.7329 23.1333 59.6997C23.126 59.6665 23.1162 59.6387 23.104 59.6162C23.0923 59.5938 23.0781 59.5771 23.0615 59.5664C23.0352 59.5552 22.9919 59.5496 22.9319 59.5496H22.7056V60H22.5576V58.9087H22.8909C22.926 58.9087 22.9558 58.9092 22.9802 58.9102C23.0051 58.9106 23.0312 58.9121 23.0586 58.9146C23.0859 58.917 23.1089 58.9204 23.1274 58.9248C23.146 58.9292 23.1648 58.9351 23.1838 58.9424C23.2034 58.9497 23.2192 58.9587 23.2314 58.9695C23.2441 58.9802 23.2561 58.9932 23.2673 59.0083C23.2786 59.0229 23.2874 59.04 23.2937 59.0596C23.3 59.0786 23.3049 59.1006 23.3083 59.1255C23.3123 59.1504 23.3142 59.1782 23.3142 59.209ZM23.1677 59.2668V59.165C23.1677 59.1465 23.1672 59.1321 23.1663 59.1218C23.1658 59.1111 23.1641 59.0999 23.1611 59.0881C23.1582 59.0759 23.1536 59.0669 23.1472 59.061C23.1414 59.0547 23.1333 59.0486 23.123 59.0427C23.1133 59.0364 23.1003 59.032 23.0842 59.0295C23.0686 59.0271 23.05 59.0251 23.0286 59.0237C23.0076 59.0217 22.9822 59.0208 22.9524 59.0208H22.7056V59.4331H22.9612C22.9988 59.4331 23.0298 59.4312 23.0542 59.4272C23.0786 59.4233 23.0984 59.418 23.1135 59.4111C23.1292 59.4038 23.1409 59.3931 23.1487 59.3789C23.1565 59.3643 23.1616 59.3489 23.1641 59.3328C23.1665 59.3162 23.1677 59.2942 23.1677 59.2668ZM24.147 60H23.5288V58.9087H24.1404L24.155 59.0215H23.6775V59.3723H24.0854V59.491H23.6775V59.8879H24.1616L24.147 60ZM25.1189 60H24.968L24.8853 59.7209H24.4817L24.4019 60H24.259L24.5938 58.9087H24.7922L25.1189 60ZM24.8545 59.6155L24.7622 59.2881L24.686 59.02C24.6577 59.1211 24.6328 59.208 24.6113 59.2808L24.5132 59.6155H24.8545ZM33.1785 59.9934H32.5464C32.5469 59.9172 32.5518 59.8562 32.561 59.8103C32.5708 59.7639 32.5869 59.7249 32.6094 59.6931C32.6318 59.6614 32.6646 59.6304 32.7075 59.6001C32.7363 59.5801 32.7678 59.5596 32.802 59.5386C32.8367 59.5176 32.8638 59.5015 32.8833 59.4902C32.9028 59.4785 32.9236 59.4648 32.9456 59.4492C32.9675 59.4336 32.9841 59.4189 32.9954 59.4053C33.0071 59.3916 33.0181 59.3748 33.0283 59.3547C33.0386 59.3347 33.0457 59.312 33.0496 59.2866C33.0535 59.2607 33.0554 59.2305 33.0554 59.1958C33.0554 59.1748 33.0552 59.1587 33.0547 59.1475C33.0547 59.1357 33.0537 59.1223 33.0518 59.1072C33.0503 59.0916 33.0479 59.0798 33.0444 59.072C33.0415 59.0642 33.0371 59.0554 33.0312 59.0457C33.0259 59.0359 33.0188 59.0288 33.01 59.0244C33.0017 59.0195 32.9915 59.0149 32.9792 59.0105C32.967 59.0056 32.9526 59.0024 32.936 59.001C32.9194 58.999 32.9004 58.998 32.8789 58.998C32.8384 58.998 32.8064 59 32.783 59.0039C32.76 59.0073 32.7395 59.0154 32.7214 59.0281C32.7039 59.0408 32.6909 59.0588 32.6826 59.0823C32.6748 59.1052 32.6692 59.1365 32.6658 59.176L32.5574 59.1504C32.5569 59.146 32.5566 59.1394 32.5566 59.1306C32.5566 59.0471 32.5828 58.9873 32.635 58.9512C32.6873 58.9146 32.7649 58.8962 32.8679 58.8962C32.908 58.8962 32.9424 58.8979 32.9712 58.9014C33 58.9043 33.0271 58.9099 33.0525 58.9182C33.0779 58.9265 33.0989 58.938 33.1155 58.9526C33.1321 58.9668 33.1462 58.9851 33.158 59.0076C33.1702 59.0295 33.1787 59.0562 33.1836 59.0874C33.189 59.1182 33.1917 59.1543 33.1917 59.1958C33.1917 59.2632 33.1833 59.3198 33.1667 59.3657C33.1506 59.4111 33.1274 59.4485 33.0972 59.4778C33.0669 59.5071 33.0251 59.5361 32.9719 59.5649C32.9592 59.5723 32.9424 59.5818 32.9214 59.5935C32.9009 59.6052 32.885 59.6143 32.8738 59.6206C32.863 59.627 32.8491 59.6353 32.832 59.6455C32.8154 59.6558 32.8027 59.6643 32.7939 59.6711C32.7852 59.678 32.7744 59.6868 32.7617 59.6975C32.749 59.7083 32.7393 59.7183 32.7324 59.7275C32.7261 59.7363 32.719 59.7471 32.7112 59.7598C32.7034 59.7725 32.6975 59.7854 32.6936 59.7986C32.6897 59.8113 32.6863 59.8257 32.6833 59.8418C32.6809 59.8579 32.6794 59.875 32.679 59.8931H33.1785V59.9934ZM33.7432 60.0117C33.6978 60.0117 33.6577 60.0093 33.623 60.0044C33.5884 60 33.5581 59.9907 33.5322 59.9766C33.5068 59.9624 33.4851 59.9487 33.467 59.9355C33.4495 59.9224 33.4348 59.9011 33.4231 59.8718C33.4119 59.842 33.4028 59.8159 33.396 59.7935C33.3896 59.771 33.385 59.7371 33.3821 59.6917C33.3792 59.6458 33.3772 59.6064 33.3762 59.5737C33.3757 59.541 33.3755 59.4937 33.3755 59.4316C33.3755 59.3906 33.3757 59.3552 33.3762 59.3254C33.3772 59.2952 33.3789 59.2642 33.3813 59.2324C33.3838 59.2002 33.387 59.1729 33.3909 59.1504C33.3953 59.1274 33.4009 59.1045 33.4077 59.0815C33.4146 59.0581 33.4229 59.0386 33.4326 59.0229C33.4429 59.0073 33.4548 58.9922 33.4685 58.9775C33.4822 58.9624 33.4978 58.9504 33.5154 58.9417C33.533 58.9324 33.553 58.9241 33.5754 58.9167C33.5979 58.9094 33.623 58.9043 33.6509 58.9014C33.6787 58.8984 33.7095 58.897 33.7432 58.897C33.7896 58.897 33.8303 58.9001 33.8655 58.9065C33.9006 58.9128 33.9312 58.9221 33.957 58.9343C33.9834 58.946 34.0056 58.9624 34.0237 58.9834C34.0417 59.0044 34.0564 59.0271 34.0676 59.0515C34.0793 59.0754 34.0884 59.106 34.0947 59.1431C34.1011 59.1797 34.1052 59.2173 34.1072 59.2559C34.1096 59.2939 34.1108 59.3396 34.1108 59.3928C34.1108 59.5525 34.1079 59.6594 34.1021 59.7136C34.0918 59.8127 34.0662 59.8843 34.0251 59.9282C33.9763 59.98 33.8931 60.0076 33.7754 60.011C33.7651 60.0115 33.7544 60.0117 33.7432 60.0117ZM33.7432 59.0061C33.6694 59.0061 33.6143 59.0166 33.5776 59.0376C33.5415 59.0581 33.5222 59.0911 33.5198 59.1365C33.5178 59.1672 33.5164 59.2002 33.5154 59.2354C33.5144 59.2705 33.5134 59.3105 33.5125 59.3555C33.512 59.3999 33.5115 59.4341 33.511 59.458C33.511 59.5884 33.5137 59.6956 33.519 59.7795C33.5215 59.821 33.5405 59.8513 33.5762 59.8704C33.6118 59.8894 33.6675 59.8989 33.7432 59.8989C33.8188 59.8989 33.8745 59.8894 33.9102 59.8704C33.9458 59.8513 33.9648 59.821 33.9673 59.7795C33.9727 59.6956 33.9753 59.5884 33.9753 59.458C33.9744 59.4346 33.9731 59.385 33.9717 59.3093C33.9707 59.2336 33.969 59.176 33.9666 59.1365C33.9636 59.0911 33.9438 59.0581 33.9072 59.0376C33.8711 59.0166 33.8164 59.0061 33.7432 59.0061ZM34.9041 59.9934H34.272C34.2725 59.9172 34.2773 59.8562 34.2866 59.8103C34.2964 59.7639 34.3125 59.7249 34.335 59.6931C34.3574 59.6614 34.3901 59.6304 34.4331 59.6001C34.4619 59.5801 34.4934 59.5596 34.5276 59.5386C34.5623 59.5176 34.5894 59.5015 34.6089 59.4902C34.6284 59.4785 34.6492 59.4648 34.6711 59.4492C34.6931 59.4336 34.7097 59.4189 34.7209 59.4053C34.7327 59.3916 34.7437 59.3748 34.7539 59.3547C34.7642 59.3347 34.7712 59.312 34.7751 59.2866C34.7791 59.2607 34.781 59.2305 34.781 59.1958C34.781 59.1748 34.7808 59.1587 34.7803 59.1475C34.7803 59.1357 34.7793 59.1223 34.7773 59.1072C34.7759 59.0916 34.7734 59.0798 34.77 59.072C34.7671 59.0642 34.7627 59.0554 34.7568 59.0457C34.7515 59.0359 34.7444 59.0288 34.7356 59.0244C34.7273 59.0195 34.717 59.0149 34.7048 59.0105C34.6926 59.0056 34.6782 59.0024 34.6616 59.001C34.645 58.999 34.626 58.998 34.6045 58.998C34.564 58.998 34.532 59 34.5085 59.0039C34.4856 59.0073 34.4651 59.0154 34.447 59.0281C34.4294 59.0408 34.4165 59.0588 34.4082 59.0823C34.4004 59.1052 34.3948 59.1365 34.3914 59.176L34.283 59.1504C34.2825 59.146 34.2822 59.1394 34.2822 59.1306C34.2822 59.0471 34.3083 58.9873 34.3606 58.9512C34.4128 58.9146 34.4905 58.8962 34.5935 58.8962C34.6335 58.8962 34.668 58.8979 34.6968 58.9014C34.7256 58.9043 34.7527 58.9099 34.7781 58.9182C34.8035 58.9265 34.8245 58.938 34.8411 58.9526C34.8577 58.9668 34.8718 58.9851 34.8835 59.0076C34.8958 59.0295 34.9043 59.0562 34.9092 59.0874C34.9146 59.1182 34.9172 59.1543 34.9172 59.1958C34.9172 59.2632 34.9089 59.3198 34.8923 59.3657C34.8762 59.4111 34.853 59.4485 34.8228 59.4778C34.7925 59.5071 34.7507 59.5361 34.6975 59.5649C34.6848 59.5723 34.668 59.5818 34.647 59.5935C34.6265 59.6052 34.6106 59.6143 34.5994 59.6206C34.5886 59.627 34.5747 59.6353 34.5576 59.6455C34.541 59.6558 34.5283 59.6643 34.5195 59.6711C34.5107 59.678 34.5 59.6868 34.4873 59.6975C34.4746 59.7083 34.4648 59.7183 34.458 59.7275C34.4517 59.7363 34.4446 59.7471 34.4368 59.7598C34.429 59.7725 34.4231 59.7854 34.4192 59.7986C34.4153 59.8113 34.4119 59.8257 34.4089 59.8418C34.4065 59.8579 34.405 59.875 34.4045 59.8931H34.9041V59.9934ZM35.7317 59.7144H35.6299V60H35.4944V59.7151H35.0388V59.6052L35.4182 58.9146H35.6299V59.6184H35.7317V59.7144ZM35.4944 58.99C35.4861 59.0071 35.4736 59.0322 35.457 59.0654C35.4404 59.0981 35.4292 59.1204 35.4233 59.1321L35.2512 59.4778C35.2434 59.4939 35.2314 59.5178 35.2153 59.5496C35.1992 59.5808 35.1875 59.6038 35.1802 59.6184H35.4944V58.99ZM36.2078 58.8896L35.9397 60.019H35.8086L36.0774 58.8896H36.2078ZM36.7065 60.0117C36.6611 60.0117 36.6211 60.0093 36.5864 60.0044C36.5518 60 36.5215 59.9907 36.4956 59.9766C36.4702 59.9624 36.4485 59.9487 36.4304 59.9355C36.4128 59.9224 36.3982 59.9011 36.3865 59.8718C36.3752 59.842 36.3662 59.8159 36.3594 59.7935C36.353 59.771 36.3484 59.7371 36.3455 59.6917C36.3425 59.6458 36.3406 59.6064 36.3396 59.5737C36.3391 59.541 36.3389 59.4937 36.3389 59.4316C36.3389 59.3906 36.3391 59.3552 36.3396 59.3254C36.3406 59.2952 36.3423 59.2642 36.3447 59.2324C36.3472 59.2002 36.3503 59.1729 36.3542 59.1504C36.3586 59.1274 36.3643 59.1045 36.3711 59.0815C36.3779 59.0581 36.3862 59.0386 36.396 59.0229C36.4062 59.0073 36.4182 58.9922 36.4319 58.9775C36.4456 58.9624 36.4612 58.9504 36.4788 58.9417C36.4963 58.9324 36.5164 58.9241 36.5388 58.9167C36.5613 58.9094 36.5864 58.9043 36.6143 58.9014C36.6421 58.8984 36.6729 58.897 36.7065 58.897C36.7529 58.897 36.7937 58.9001 36.8289 58.9065C36.864 58.9128 36.8945 58.9221 36.9204 58.9343C36.9468 58.946 36.969 58.9624 36.9871 58.9834C37.0051 59.0044 37.0198 59.0271 37.031 59.0515C37.0427 59.0754 37.0518 59.106 37.0581 59.1431C37.0645 59.1797 37.0686 59.2173 37.0706 59.2559C37.073 59.2939 37.0742 59.3396 37.0742 59.3928C37.0742 59.5525 37.0713 59.6594 37.0654 59.7136C37.0552 59.8127 37.0295 59.8843 36.9885 59.9282C36.9397 59.98 36.8564 60.0076 36.7388 60.011C36.7285 60.0115 36.7178 60.0117 36.7065 60.0117ZM36.7065 59.0061C36.6328 59.0061 36.5776 59.0166 36.541 59.0376C36.5049 59.0581 36.4856 59.0911 36.4832 59.1365C36.4812 59.1672 36.4797 59.2002 36.4788 59.2354C36.4778 59.2705 36.4768 59.3105 36.4758 59.3555C36.4753 59.3999 36.4749 59.4341 36.4744 59.458C36.4744 59.5884 36.4771 59.6956 36.4824 59.7795C36.4849 59.821 36.5039 59.8513 36.5396 59.8704C36.5752 59.8894 36.6309 59.8989 36.7065 59.8989C36.7822 59.8989 36.8379 59.8894 36.8735 59.8704C36.9092 59.8513 36.9282 59.821 36.9307 59.7795C36.936 59.6956 36.9387 59.5884 36.9387 59.458C36.9377 59.4346 36.9365 59.385 36.9351 59.3093C36.9341 59.2336 36.9324 59.176 36.9299 59.1365C36.927 59.0911 36.9072 59.0581 36.8706 59.0376C36.8345 59.0166 36.7798 59.0061 36.7065 59.0061ZM37.7356 58.9146V59.0391C37.5886 59.4194 37.4795 59.7397 37.4082 60H37.2734C37.3638 59.6924 37.4766 59.3677 37.6118 59.0259H37.1907V58.9146H37.7356ZM38.2131 58.8896L37.9451 60.019H37.814L38.0828 58.8896H38.2131ZM38.7119 60.0117C38.6665 60.0117 38.6265 60.0093 38.5918 60.0044C38.5571 60 38.5269 59.9907 38.501 59.9766C38.4756 59.9624 38.4539 59.9487 38.4358 59.9355C38.4182 59.9224 38.4036 59.9011 38.3918 59.8718C38.3806 59.842 38.3716 59.8159 38.3647 59.7935C38.3584 59.771 38.3538 59.7371 38.3508 59.6917C38.3479 59.6458 38.3459 59.6064 38.345 59.5737C38.3445 59.541 38.3442 59.4937 38.3442 59.4316C38.3442 59.3906 38.3445 59.3552 38.345 59.3254C38.3459 59.2952 38.3477 59.2642 38.3501 59.2324C38.3525 59.2002 38.3557 59.1729 38.3596 59.1504C38.364 59.1274 38.3696 59.1045 38.3765 59.0815C38.3833 59.0581 38.3916 59.0386 38.4014 59.0229C38.4116 59.0073 38.4236 58.9922 38.4373 58.9775C38.4509 58.9624 38.4666 58.9504 38.4841 58.9417C38.5017 58.9324 38.5217 58.9241 38.5442 58.9167C38.5667 58.9094 38.5918 58.9043 38.6196 58.9014C38.6475 58.8984 38.6782 58.897 38.7119 58.897C38.7583 58.897 38.7991 58.9001 38.8342 58.9065C38.8694 58.9128 38.8999 58.9221 38.9258 58.9343C38.9521 58.946 38.9744 58.9624 38.9924 58.9834C39.0105 59.0044 39.0251 59.0271 39.0364 59.0515C39.0481 59.0754 39.0571 59.106 39.0635 59.1431C39.0698 59.1797 39.074 59.2173 39.0759 59.2559C39.0784 59.2939 39.0796 59.3396 39.0796 59.3928C39.0796 59.5525 39.0767 59.6594 39.0708 59.7136C39.0605 59.8127 39.0349 59.8843 38.9939 59.9282C38.9451 59.98 38.8618 60.0076 38.7441 60.011C38.7339 60.0115 38.7231 60.0117 38.7119 60.0117ZM38.7119 59.0061C38.6382 59.0061 38.583 59.0166 38.5464 59.0376C38.5103 59.0581 38.491 59.0911 38.4885 59.1365C38.4866 59.1672 38.4851 59.2002 38.4841 59.2354C38.4832 59.2705 38.4822 59.3105 38.4812 59.3555C38.4807 59.3999 38.4802 59.4341 38.4797 59.458C38.4797 59.5884 38.4824 59.6956 38.4878 59.7795C38.4902 59.821 38.5093 59.8513 38.5449 59.8704C38.5806 59.8894 38.6362 59.8989 38.7119 59.8989C38.7876 59.8989 38.8433 59.8894 38.8789 59.8704C38.9146 59.8513 38.9336 59.821 38.936 59.7795C38.9414 59.6956 38.9441 59.5884 38.9441 59.458C38.9431 59.4346 38.9419 59.385 38.9404 59.3093C38.9395 59.2336 38.9377 59.176 38.9353 59.1365C38.9324 59.0911 38.9126 59.0581 38.876 59.0376C38.8398 59.0166 38.7852 59.0061 38.7119 59.0061ZM39.741 58.9146V59.0391C39.594 59.4194 39.4849 59.7397 39.4136 60H39.2788C39.3691 59.6924 39.4819 59.3677 39.6172 59.0259H39.196V58.9146H39.741Z" fill="white"/>
<g clip-path="url(#clip0_4204_17024)">
<path d="M23.9282 12V15.4444H27.4837V12H23.9282ZM20.3726 15.4444V24.0556H23.9282V15.4444H20.3726ZM34.5948 20.6111V27.5H38.1504V20.6111H34.5948ZM31.0393 27.5V30.9444H34.5948V27.5H31.0393ZM9.70595 24.0556V27.5H13.2615V24.0556H9.70595ZM6.15039 27.5V30.9444H9.70595V27.5H6.15039ZM22.1504 39.5556V43H25.7059V39.5556H22.1504ZM8.81706 35.25H14.1504V40.4167H8.81706V35.25ZM6.15039 32.6667V43H16.8171V32.6667H6.15039ZM8.81706 14.5833H14.1504V19.75H8.81706V14.5833ZM6.15039 12V22.3333H16.8171V12H6.15039ZM30.1504 35.25H35.4837V40.4167H30.1504V35.25ZM27.4837 32.6667V43H38.1504V32.6667H27.4837ZM31.0393 12V17.1667H27.4837V20.6111H34.5948V15.4444H38.1504V12H31.0393ZM23.9282 24.0556V27.5H31.0393V24.0556H23.9282ZM16.8171 24.0556V27.5H13.2615V30.9444H23.9282V27.5H20.3726V24.0556H16.8171ZM18.5948 32.6667V39.5556H22.1504V36.1111H25.7059V32.6667H18.5948ZM10.1504 36.5417V39.125H12.8171V36.5417H10.1504ZM10.1504 15.875V18.4583H12.8171V15.875H10.1504ZM31.4837 36.5417V39.125H34.1504V36.5417H31.4837Z" fill="black"/>
</g>
<rect x="0.25" y="-0.25" width="31.5" height="30.5" rx="0.75" transform="matrix(1 0 0 -1 6.15039 42.5)" stroke="#4DFF4D" stroke-width="0.5" stroke-linecap="round"/>
<path d="M8.404 7H7.15L7.378 3.25H8.944L9.412 5.158H9.454L9.922 3.25H11.488L11.716 7H10.462L10.39 5.182H10.348L9.892 7H8.974L8.512 5.182H8.476L8.404 7ZM13.1893 3.25L13.5193 4.57H13.5613L13.8973 3.25H15.2233L14.1433 5.98V7H12.9433V5.98L11.8633 3.25H13.1893Z" fill="#202020"/>
<path d="M19.093 4.21H18.223V7H17.023V4.21H16.153V3.25H19.093V4.21ZM19.423 7V3.25H20.623V7H19.423ZM23.7119 5.926L23.8019 6.934C23.5499 7.038 23.2339 7.09 22.8539 7.09C22.4739 7.09 22.1679 7.05 21.9359 6.97C21.7079 6.89 21.5279 6.764 21.3959 6.592C21.2639 6.42 21.1719 6.218 21.1199 5.986C21.0679 5.754 21.0419 5.468 21.0419 5.128C21.0419 4.788 21.0679 4.502 21.1199 4.27C21.1719 4.034 21.2639 3.83 21.3959 3.658C21.6519 3.326 22.1219 3.16 22.8059 3.16C22.9579 3.16 23.1359 3.176 23.3399 3.208C23.5479 3.236 23.7019 3.272 23.8019 3.316L23.6219 4.234C23.3619 4.178 23.1239 4.15 22.9079 4.15C22.6919 4.15 22.5419 4.17 22.4579 4.21C22.3739 4.25 22.3319 4.33 22.3319 4.45V6.022C22.4879 6.054 22.6459 6.07 22.8059 6.07C23.1459 6.07 23.4479 6.022 23.7119 5.926ZM25.4219 5.368V7H24.2219V3.25H25.4219V4.78H25.4459C25.4539 4.66 25.4739 4.564 25.5059 4.492L26.0939 3.25H27.3899L26.4899 5.092L27.4199 7H26.1239L25.5059 5.656C25.4739 5.584 25.4539 5.488 25.4459 5.368H25.4219ZM30.1785 5.584H28.9785V6.04H30.4485V7H27.7785V3.25H30.4185L30.2685 4.21H28.9785V4.714H30.1785V5.584ZM33.6302 4.21H32.7602V7H31.5602V4.21H30.6902V3.25H33.6302V4.21ZM33.8102 6.934L33.9782 5.944C34.3462 6.036 34.6762 6.082 34.9682 6.082C35.2642 6.082 35.5022 6.07 35.6822 6.046V5.746L35.1422 5.698C34.6542 5.654 34.3182 5.538 34.1342 5.35C33.9542 5.158 33.8642 4.876 33.8642 4.504C33.8642 3.992 33.9742 3.64 34.1942 3.448C34.4182 3.256 34.7962 3.16 35.3282 3.16C35.8602 3.16 36.3402 3.21 36.7682 3.31L36.6182 4.27C36.2462 4.21 35.9482 4.18 35.7242 4.18C35.5002 4.18 35.3102 4.19 35.1542 4.21V4.504L35.5862 4.546C36.1102 4.598 36.4722 4.724 36.6722 4.924C36.8722 5.12 36.9722 5.394 36.9722 5.746C36.9722 5.998 36.9382 6.212 36.8702 6.388C36.8022 6.56 36.7202 6.692 36.6242 6.784C36.5322 6.872 36.4002 6.94 36.2282 6.988C36.0562 7.036 35.9042 7.064 35.7722 7.072C35.6442 7.084 35.4722 7.09 35.2562 7.09C34.7362 7.09 34.2542 7.038 33.8102 6.934Z" fill="#FF5252"/>
<path d="M4 46H40" stroke="white" stroke-width="0.9" stroke-dasharray="1.8 1.8"/>
<path d="M38.9746 15.0524L37.744 8.05762L42.9998 11.702L40.4616 12.4955L38.9746 15.0524Z" fill="#25FD1E"/>
<path d="M38.9746 15.0524L37.744 8.05762L42.9998 11.702L40.4616 12.4955L38.9746 15.0524Z" fill="white" stroke="#000B1F" stroke-width="0.3" stroke-linecap="square"/>
<path d="M36.2305 14.9948L34.9998 8L40.2556 11.6443L37.7175 12.4379L36.2305 14.9948Z" fill="#25FD1E"/>
<path d="M36.2305 14.9948L34.9998 8L40.2556 11.6443L37.7175 12.4379L36.2305 14.9948Z" fill="#25FD1E" stroke="#000B1F" stroke-width="0.3" stroke-linecap="square"/>
<defs>
<clipPath id="clip0_4204_17024">
<rect width="32" height="31" rx="1" transform="matrix(1 0 0 -1 6.15039 43)" fill="white"/>
</clipPath>
</defs>
</svg>
