<svg width="200" height="200" viewBox="0 0 200 200" fill="none" xmlns="http://www.w3.org/2000/svg">
<mask id="path-1-inside-1_3466_21871" fill="white">
<path fill-rule="evenodd" clip-rule="evenodd" d="M0 17.7091C9.94113 17.7091 18 10.014 18 0.521563C18 0.347089 17.9973 0.173223 17.9919 0H182.008C182.003 0.173223 182 0.347089 182 0.521563C182 10.014 190.059 17.7091 200 17.7091V200H0V17.7091Z"/>
</mask>
<path fill-rule="evenodd" clip-rule="evenodd" d="M0 17.7091C9.94113 17.7091 18 10.014 18 0.521563C18 0.347089 17.9973 0.173223 17.9919 0H182.008C182.003 0.173223 182 0.347089 182 0.521563C182 10.014 190.059 17.7091 200 17.7091V200H0V17.7091Z" fill="white"/>
<path d="M0 17.7091V15.7091H-2V17.7091H0ZM17.9919 0V-2H15.9285L15.9928 0.0624018L17.9919 0ZM182.008 0L184.007 0.0623358L184.071 -2H182.008V0ZM200 17.7091H202V15.7091H200V17.7091ZM200 200V202H202V200H200ZM0 200H-2V202H0V200ZM16 0.521563C16 8.82334 8.92462 15.7091 0 15.7091V19.7091C10.9576 19.7091 20 11.2046 20 0.521563H16ZM15.9928 0.0624018C15.9976 0.214827 16 0.367891 16 0.521563H20C20 0.326287 19.997 0.131618 19.9909 -0.0624018L15.9928 0.0624018ZM182.008 -2H17.9919V2H182.008V-2ZM184 0.521563C184 0.367964 184.002 0.214879 184.007 0.0623358L180.009 -0.0623358C180.003 0.131567 180 0.326214 180 0.521563H184ZM200 15.7091C191.075 15.7091 184 8.82334 184 0.521563H180C180 11.2046 189.042 19.7091 200 19.7091V15.7091ZM202 200V17.7091H198V200H202ZM0 202H200V198H0V202ZM-2 17.7091V200H2V17.7091H-2Z" fill="#4DFF4D" mask="url(#path-1-inside-1_3466_21871)"/>
</svg>
