<svg width="200" height="155" viewBox="0 0 200 155" fill="none" xmlns="http://www.w3.org/2000/svg">
<mask id="path-1-inside-1_3466_21867" fill="white">
<path fill-rule="evenodd" clip-rule="evenodd" d="M0 0H200V139C190.241 139 182.296 146.119 182.008 155H17.9919C17.7035 146.119 9.75866 139 0 139V0Z"/>
</mask>
<path fill-rule="evenodd" clip-rule="evenodd" d="M0 0H200V139C190.241 139 182.296 146.119 182.008 155H17.9919C17.7035 146.119 9.75866 139 0 139V0Z" fill="white"/>
<path d="M200 0H202V-2H200V0ZM0 0V-2H-2V0H0ZM200 139V141H202V139H200ZM182.008 155V157H183.944L184.007 155.065L182.008 155ZM17.9919 155L15.9929 155.065L16.0558 157H17.9919V155ZM0 139H-2V141H0V139ZM200 -2H0V2H200V-2ZM202 139V0H198V139H202ZM184.007 155.065C184.256 147.412 191.165 141 200 141V137C189.318 137 180.337 144.826 180.009 154.935L184.007 155.065ZM17.9919 157H182.008V153H17.9919V157ZM0 141C8.83532 141 15.7445 147.412 15.9929 155.065L19.9908 154.935C19.6626 144.826 10.682 137 0 137V141ZM-2 0V139H2V0H-2Z" fill="#4DFF4D" mask="url(#path-1-inside-1_3466_21867)"/>
</svg>
